Plot:
During a violent thunderstorm, a family is awoken by piercing shrieks which summon the dead to rise again. Their lives explode in a blood soaked fury as they battle malevolent spirits, whilst fighting to save their souls from eternal torment with... the Banshee.

Genre:Horror
Language:English  http://www.imdb.com/title/tt1442492/
Source:DVDScr-DMZ.Thx
 
http://img208.imageshack.us/img208/8422/damnedbydawndvdscrh264f.jpg 
http://img249.imageshack.us/img249/8422/damnedbydawndvdscrh264f.jpg 
http://img263.imageshack.us/img263/8422/damnedbydawndvdscrh264f.jpg 
http://img175.imageshack.us/img175/8422/damnedbydawndvdscrh264f.jpg
 
http://www.youtube.com/watch?v=PHJLpiLy7pA&feature=player_embedded

General
Complete name :Damned By Dawn DvDScr H264 Feel-Free
Format : MPEG-4
Format profile : Base Media / Version 2
Codec ID : mp42
File size : 710 MiB
Duration : 1h 24mn
Overall bit rate : 1 174 Kbps
Video #1
Codec ID : avc1
Codec ID/Info : Advanced Video Coding
Duration : 1h 24mn
Bit rate mode : Variable
Bit rate : 693 Kbps
Width : 720 pixels
Height : 384 pixels
Display aspect ratio : 1.875
Frame rate mode : Constant
Frame rate : 23.976 fps
Resolution : 24 bits
Colorimetry : 4:2:0
Scan type : Progressive
Bits/(Pixel*Frame) : 0.105
Stream size : 419 MiB (59%)
Audio #2
ID : 2
Format : AAC
Format/Info : Advanced Audio Codec
Format version : Version 4
Format profile : LC
Format settings, SBR : No
Codec ID : 40
Duration : 1h 24mn
Bit rate mode : Constant
Bit rate : 477 Kbps
Nominal bit rate : 480 Kbps
Channel(s) : 6 channels
Channel positions : Front: L C R, Rear: L R, LFE
Sampling rate : 48.0 KHz
Resolution : 16 bits
Stream size : 288 MiB (41%)